<svg xmlns="http://www.w3.org/2000/svg" height="250.31" viewBox="0 0 192 250.31377" width="192"><g transform="matrix(1.25 0 0 -1.25 -330.08 555.39)"><g><path d="m265.14 344.11c0-54.769 34.094-99.326 76-99.326s76 44.557 76 99.326c0 54.767-34.094 99.325-76 99.325s-76-44.557-76-99.325" fill="#003865"/><path d="m268.9 344.11c0 52.697 32.409 95.571 72.249 95.571 39.836 0 72.247-42.874 72.247-95.571 0-52.699-32.411-95.573-72.247-95.573-39.84 0-72.249 42.874-72.249 95.573" fill="#fff"/><path d="m95.619 15.348l-5.191 0.019v0.483c2.235 0.197 2.202 0.489 2.277 2.812l0.018 4.57c0.012 3.11-0.216 2.994-2.254 3.342v0.483l5.689-0.02c2.148-0.01 5.262-0.277 5.252-3.131-0.01-2.047-1.906-3.037-3.642-3.39v-0.036c1.268-0.314 2.832-1.008 2.832-2.554-0.02-2.596-3.026-2.586-4.981-2.578zm8.751 0.099l-0.11 0.469c1.89 0.845 2.14 0.78 1.36 3.797l-0.68 2.633c-0.36 1.397-0.94 2.968-0.04 4.322 0.75 1.135 2.22 1.871 3.52 2.209 1.39 0.355 2.99 0.396 4.24-0.381 1.22-0.75 1.64-2.24 2.03-3.543l0.77-2.469c0.85-2.746 0.91-2.997 2.62-3.002l0.12-0.464-5.2-1.342-0.12 0.467c1.49 0.718 2.31 0.823 1.9 2.623l-0.92 4.06c-0.47 2.082-1.4 3.972-4.15 3.264-1.16-0.3-2.41-1.05-2.82-2.238-0.32-0.969 0.08-2.277 0.33-3.241l0.6-2.33c0.59-2.264 0.68-3.055 3.03-2.666l0.12-0.463-6.6-1.705zm-9.403 0.592c1.58-0.007 3.042 0.23 3.047 2.139 0.009 1.682-1.262 2.325-2.774 2.33h-0.258l-0.015-4.469zm-15.979 1.941c-0.759-0.038-1.531 0.079-2.259 0.338-1.977 0.697-3.614 2.622-2.854 4.78 1.137 3.206 6.386 1.101 7.355 3.838 0.375 1.054-0.175 2.032-1.242 2.41-1.918 0.677-3.732-0.706-4.83-2.104l-0.469 0.272 1.67 3.021c1.189 0.166 2.43 0.071 3.584-0.338 2.072-0.733 3.966-2.496 3.141-4.826-1.195-3.387-6.464-1.325-7.395-3.955-0.336-0.954 0.071-1.917 1.059-2.268 1.67-0.586 2.584 0.747 3.356 1.967l0.488-0.17-0.852-2.873c-0.248-0.048-0.499-0.079-0.752-0.092zm16 3.18c2.009-0.163 3.833 1.019 3.84 2.979 0.007 1.322-0.902 2.219-2.226 2.226-1.671 0.003-1.605-1.333-1.61-2.59l-0.004-2.615zm28.552 1.285c-2.19-0.032-4.26 0.925-5.47 3.153-1.88 3.474 0.14 6.866 3.39 8.629 1.18 0.637 2.43 1.043 3.77 1.169l2.68-2.654-0.38-0.396c-1.61 1.31-3.5 2.378-5.57 1.254-2.47-1.347-2.49-4.738-1.29-6.942 1.26-2.33 3.74-3.898 6.26-2.527 1.9 1.035 2.23 2.878 1.67 4.779l0.45 0.248 1.57-2.902c-0.81-1.166-1.94-2.07-3.18-2.744-1.23-0.672-2.59-1.047-3.9-1.067zm-59.642 1.328l-0.277 0.17c-0.051 0.716-0.261 1.426-0.707 1.981l0.412 0.351 0.963 6.741 0.408 2.814c0.139 0.981-0.182 1.216-0.822 1.949l0.25 0.412 4.566-2.781-0.25-0.412c-1.716 0.782-2.347 1.106-3.011-1.969l-0.194-0.908 3.2-1.949 0.918 0.705c2.067 1.58 2.152 1.912 0.878 3.029l0.248 0.41 4.993-3.037-0.25-0.412c-1.797 0.453-1.802 0.209-4.225-1.617l-7.1-5.477zm0.266 3.116l3.416 2.595-2.601 1.582-0.815-4.177zm70.176 1.08l-0.32 0.363c1.38 1.726 0.61 2.687-0.57 4.014l-3.21 3.631c-1.53 1.74-2.14 1.119-3.24 0.466l-0.31 0.362 4.22 3.734 0.32-0.357c-1.24-1.668-1.43-2.022-0.08-3.651 1.19-1.451 2.33-2.858 3.64-4.265 0.09 4.168 0.43 9.969 0.32 12.632l0.83 0.231 5.07-5.734c1.85-2.097 2.4-2.583 3.62-1.682l0.32-0.361-3.91-3.461-0.32 0.359c1.33 1.551 1.55 2.085 0.22 3.641l-3.54 4.166h-0.05c0.06-3.801-0.3-7.92-0.05-11.465l-2.96-2.623zm-77.281 0.431l-0.272 0.239c0.158 0.706-0.34 1.027-0.805 1.431l-5.472 4.784c-0.234 0.204-0.441 0.412-0.682 0.55-0.231 0.132-0.51 0.176-0.846 0.057l-0.269 0.236 2.244 3.172 0.422-0.252c-1.076-2.305-0.3-3.297 1.482-4.855l4.705 5.381c2.046 2.344 1.801 2.396 0.252 4.203l0.319 0.365 5.59-4.887-0.317-0.365c-2.001 1.29-2.092 1.532-4.135-0.811l-4.705-5.382c1.783-1.563 2.903-2.216 5.024-0.83l0.306-0.383-2.841-2.653zm39.185 5.758c-0.703 0-1.277 0.575-1.277 1.281 0 0.01 0.4 20.588 0.4 20.588l0.85 0.051 0.775-0.049 0.051-0.443 0.48-20.141c0-0.713-0.573-1.287-1.279-1.287zm12.496 1.99c-0.5 0.028-0.96 0.345-1.13 0.84-0.01 0.008-6.76 19.756-6.76 19.756l0.67 0.231 0.9 0.324 0.18-0.434 7.41-18.998c0-0.01-0.04-0.982-0.04-0.982l-0.73-0.662c-0.16-0.059-0.33-0.084-0.5-0.075zm-25.488 0.131c-0.662 0.239-1.006 0.975-0.768 1.637 0.005 0.013 7.537 19.354 7.537 19.354l1.497-0.534-0.1-0.465-6.531-19.218c0-0.008-0.655-0.729-0.655-0.729l-0.98-0.045zm18.878 1.514c0.01 0.002-0.95 0.207-0.95 0.207l-0.53 0.828c0 0.013-2.607 17.309-2.607 17.309l1.574 0.289 0.227-0.438 3.326-16.707c0-0.01-0.21-0.967-0.21-0.967l-0.83-0.521zm-11.788 0.031l-0.826 0.524-0.211 0.955c0 0.01 3.349 17.123 3.349 17.123l1.67-0.28-0.058-0.468-2.444-16.809c-0.002-0.01-0.523-0.832-0.523-0.832l-0.957-0.213zm-42.957 0.19l-4.483 5.123 0.36 0.318c1.607-1.317 1.663-1.562 4.006 0.488l3.054 2.67c2.34 2.05 2.105 2.138 1.014 3.908l0.365 0.317 4.483-5.125-0.362-0.317c-1.607 1.315-1.668 1.563-4.008-0.49l-3.052-2.67c-2.342-2.052-2.104-2.14-1.016-3.908l-0.361-0.314zm99.485 1.584l-0.37 0.297c1 1.816 1.23 1.922-1.2 3.855l-3.18 2.521c-2.43 1.931-2.48 1.68-4.02 0.297l-0.38 0.295 6.48 8.16c1.26-0.479 2.45-1.112 3.48-1.974l-0.32-0.403c-1.85 0.855-3.43 0.876-4.82-0.873-1.42-1.792-0.8-2.308 0.58-3.396l1.77-1.41 0.87 1.09c0.93 1.171 1.46 1.785 0.35 3.099l0.3 0.377c1.09-0.974 2.26-1.822 3.46-2.662l-0.28-0.348c-1.49 0.636-2.06 0.104-2.98-1.05l-0.91-1.151 3.44-2.722 0.77 0.984c1.17 1.466 2.09 2.685 0.4 4.18l0.33 0.418 2.57-1.616-6.34-7.968zm-33.8 1.804c-0.5-0.059-1 0.17-1.27 0.621 0 0.015-8.5 15.694-8.5 15.694l1.33 0.789 0.37-0.328 9.02-14.864c0.35-0.613 0.14-1.398-0.47-1.753-0.15-0.087-0.32-0.139-0.48-0.159zm-33.306 0.202l-0.979 0.125-0.597 0.775 0.126 0.971c0.008 0.01 9.229 15.125 9.229 15.125l1.412-0.821-0.162-0.445-8.26-15.129c-0.002-0.005-0.769-0.601-0.769-0.601zm40.536 0.291l-0.86 0.455c0 0.002-13.69 16.892-13.69 16.892l1.16 1.008 0.4-0.277 14.08-15.977c0.46-0.548 0.39-1.354-0.15-1.807l-0.94-0.294zm-48.003 0.041l-0.936 0.296c-0.535 0.448-0.612 1.254-0.164 1.797 0.01 0.013 14.188 16.258 14.188 16.258l1.256-1.047-0.287-0.375-13.186-16.467c-0.005-0.002-0.871-0.462-0.871-0.462zm-31.485 4.656c-0.922 0.428-1.711 1.113-2.3 1.961-1.191 1.728-1.384 4.249 0.498 5.547 2.797 1.938 5.82-2.854 8.211-1.205 0.918 0.64 1.045 1.751 0.4 2.683-1.149 1.668-3.431 1.619-5.141 1.127l-0.22 0.494 3.123 1.471c1.059-0.565 2.009-1.37 2.703-2.375 1.254-1.812 1.751-4.347-0.287-5.754-2.956-2.043-6.013 2.719-8.307 1.137-0.832-0.58-1.068-1.599-0.474-2.463 1.008-1.456 2.529-0.908 3.873-0.375l0.295-0.422-2.374-1.826zm28.944 1.566l-0.873 0.449c-0.451 0.548-0.378 1.357 0.16 1.805 0.002 0.003 14.545 11.861 14.545 11.861l1.107-1.294-0.34-0.329-13.664-12.187c-0.007-0.008-0.935-0.305-0.935-0.305zm53.574 0.377l-0.93 0.297-14.52 12.393 1.06 1.314 0.37-0.285 14.73-11.457c0.01-0.01 0.46-0.877 0.46-0.877l-0.3-0.934-0.87-0.451zm32.02 2.041l-0.41 0.248c0.75 1.936 0.96 2.066-1.71 3.658l-3.49 2.08c-2.67 1.593-2.68 1.336-4.02-0.242l-0.42 0.246 5.28 8.85 4.14-0.984-0.09-0.514c-2.74 0.034-4.03 0.02-5.54-2.502-0.93-1.57-0.62-1.452-0.13-1.744l5.43-3.24c2.02-1.196 2.64-1.692 4.03 0.246l0.42-0.248-3.49-5.854zm-24.87 0.178c-0.16 0.02-0.32 0.072-0.47 0.16-0.01 0.005-20.55 12.377-20.55 12.377l0.8 1.369 0.42-0.211 20.59-11.32c0.01-0.003 0.61-0.774 0.61-0.774l-0.13-0.972c-0.27-0.46-0.77-0.69-1.27-0.629zm-68.867 0.119l-0.785 0.6-0.131 0.97 0.596 0.774c0.007 0.005 20.805 11.467 20.805 11.467l0.332-0.618 0.424-0.759-0.389-0.252-19.887-12.043c-0.002 0-0.965-0.139-0.965-0.139zm-26.875 6.791c-1.656-0.007-2.689 1.944-3.492 3.463l-2.504 4.728 0.43 0.225c1.156-1.816 1.505-1.773 3.555-0.687l4.043 2.14c2.753 1.456 2.543 1.597 1.89 3.567l0.426 0.224 3.367-6.375-0.426-0.22c-1.475 2.349-2.128 1.888-4.195 0.794l-1.52-0.802c0.977-1.335 0.829-1.276 2.577-1.264 1.093-0.005 2.988-0.132 3.945-0.621 1.446-0.75 2.138-2.386 2.93-3.701l-0.395-0.287c-1.918 2.196-5.119 2.51-7.933 2.459 0.153-1.283-0.247-2.66-1.448-3.295-0.453-0.24-0.868-0.346-1.25-0.348zm26.658 0.322c-0.005-0.002-0.982 0.037-0.982 0.037l-0.658 0.721 0.039 0.979 0.723 0.66c0.01 0.005 20.509 6.894 20.509 6.894l0.569-1.513-0.444-0.178-19.756-7.6zm69.924 0.057c-0.01 0.002-20.52 7.758-20.52 7.758l0.54 1.537 0.45-0.139 20.39-6.75c0.01-0.005 0.74-0.67 0.74-0.67l0.04-0.972c-0.01 0-0.66-0.719-0.66-0.719l-0.98-0.045zm-97.506 2.059c0.345-0.021 0.714 0.056 1.106 0.263 1.638 0.869 1.502 2.603 0.859 4.076l-4.347-2.3c0.542-1.025 1.35-1.977 2.382-2.039zm62.362 0.322l-1.627 0.129c-5.622 0.82-9.828 5.684-9.828 11.32 0 6.321 5.139 11.461 11.455 11.461 6.314 0 11.454-5.14 11.454-11.461 0-6.313-5.14-11.449-11.454-11.449zm65.724 1.381l-0.43 0.203c0.53 2.006 0.73 2.16-2.11 3.445l-3.69 1.672c-2.84 1.286-2.82 1.032-3.98-0.691l-0.43 0.201 4.25 9.385 4.22-0.52-0.02-0.516c-2.74-0.275-4.02-0.431-5.23-3.109-0.75-1.661-0.46-1.508 0.06-1.742l5.76-2.615c2.13-0.962 2.81-1.386 3.98 0.691l0.43-0.197-2.81-6.207zm-108.83 1.146c-0.01 0-0.963 0.213-0.963 0.213l-0.521 0.826c0-0.007 0.209 0.955 0.209 0.955l0.828 0.524c0.005 0 27.875 4.404 27.875 4.404l0.246-1.492-0.455-0.1-27.219-5.33zm86.576 0.084c-0.01 0.003-28.06 5.363-28.06 5.363l0.31 1.52 0.45-0.051 27.73-4.312c0.7-0.127 1.17-0.791 1.05-1.483-0.01 0-0.53-0.824-0.53-0.824l-0.95-0.213zm-112.31 6.184l-3.67 9.494 0.449 0.176c1.059-1.787 1.027-2.038 3.932-0.918l3.785 1.467c2.904 1.117 2.713 1.282 2.297 3.318l0.447 0.172 3.758-9.725c-1.057-0.85-2.207-1.55-3.471-1.998l-0.185 0.479c1.672 1.159 2.499 2.51 1.691 4.599-0.823 2.131-1.583 1.855-3.219 1.225l-2.119-0.819 0.502-1.298c0.538-1.395 0.798-2.165 2.492-1.875l0.176-0.452c-1.395-0.445-2.719-1.03-4.051-1.638l-0.16 0.42c1.305 0.964 1.139 1.729 0.604 3.109l-0.524 1.365-4.092-1.58 0.452-1.172c0.674-1.75 1.258-3.166 3.406-2.464l0.189-0.499-2.689-1.386zm25.886 1.365c-0.005 0-0.906 0.371-0.906 0.371l-0.381 0.904c0 0.706 0.576 1.282 1.282 1.282 0.007 0 27.156-0.496 27.156-0.496l0.014-1.25-0.469-0.297-26.696-0.514zm86.23 0.057l-27.52 0.48v0.002l0.04 0.746c-0.01 0.129-0.04 0.826-0.04 0.826l0.5-0.013 27.02 0.515c0.71 0 1.28-0.575 1.28-1.279 0-0.706-0.57-1.277-1.28-1.277zm27.57 2.64l-0.47 0.153c0.34 2.05 0.52 2.223-2.43 3.218l-3.85 1.297c-2.95 0.996-2.9 0.745-3.88-1.084l-0.46 0.153 3.33 9.878c1.36-0.019 2.69-0.217 3.95-0.677l-0.17-0.487c-2.02 0.173-3.52-0.338-4.24-2.457-0.73-2.166 0.03-2.444 1.69-3.004l2.16-0.726 0.44 1.322c0.48 1.417 0.77 2.173-0.72 3.037l0.16 0.457c1.36-0.55 2.75-0.945 4.16-1.332l-0.14-0.424c-1.63 0.093-1.99-0.601-2.46-2.005l-0.46-1.385 4.15-1.399 0.4 1.19c0.6 1.777 1.06 3.237-1.04 4.07l0.17 0.508 2.96-0.654-3.25-9.649zm-55.19 0.612l-0.22 1.398 0.46 0.105 35.62 6.813c0.01 0.002 0.96-0.209 0.96-0.209l0.53-0.828-0.21-0.955-0.83-0.526-36.31-5.798zm-31.342 0.015l-0.473 0.063-35.486 5.668c-0.005 0-0.83 0.519-0.83 0.519l-0.211 0.959c0.003 0 0.518 0.821 0.518 0.821l0.959 0.216c0.007-0.002 35.761-6.822 35.761-6.822l-0.238-1.424zm0.602 2.69l-0.452 0.142-33.666 11.619c-0.667 0.246-1.008 0.979-0.769 1.641 0.241 0.662 0.976 1.005 1.639 0.764 0.007-0.003 33.734-12.83 33.734-12.83l-0.486-1.336zm30.17 0.025l-0.49 1.217 0.39 0.344 33.22 12.728c0.01 0 0.98-0.037 0.98-0.037l0.67-0.723-0.05-0.98-0.72-0.658c0-0.003-34-11.891-34-11.891zm-29.124 2.525l-0.417 0.198-41.471 23.074c-0.005 0-0.602 0.77-0.602 0.77l0.129 0.97c0.346 0.61 1.129 0.82 1.74 0.47 0.008 0 41.323-24.339 41.323-24.339l-0.702-1.143zm28.024 0.051l-0.69 1.176 0.41 0.252 40.41 24.123c0.01 0.01 0.97 0.14 0.97 0.14l0.78-0.6c0.01 0 0.13-0.97 0.13-0.97l-0.6-0.78-41.41-23.341zm-86.99 0.887l-1.409 5.193 0.467 0.125c0.906-2.035 0.98-2.568 4.994 0.444l3.229 2.425-6.106 0.823c-2.736 0.382-2.712 0.283-2.644-1.75l-0.463-0.121-1.598 5.894 0.469 0.125c0.782-1.183 0.696-1.258 2.758-1.572l10.053-1.522 0.316-0.644-6.506-5.145c-2.361-1.87-3.316-2.554-3.099-4.154l-0.461-0.121zm85.61 1.25l-0.92 1.129 0.36 0.312 26.25 22.353 0.93 0.3 0.87-0.46 0.29-0.93-0.45-0.86c-0.01-0.01-27.33-21.844-27.33-21.844zm-25.052 0.258l-0.476 0.17-26.979 21.476c-0.55 0.46-0.618 1.27-0.168 1.8 0.453 0.54 1.259 0.62 1.799 0.17 0.003-0.01 26.58-22.679 26.58-22.679l-0.756-0.937zm23.162 1.832l-0.89 0.785 0.17 0.471 28.97 34.868 0.87 0.45 0.93-0.3s0.45-0.87 0.45-0.87l-0.3-0.93s-30.2-34.474-30.2-34.474zm-21.466 0.008l-0.321 0.343-29.955 34.193c-0.458 0.55-0.389 1.36 0.149 1.81 0.54 0.45 1.345 0.39 1.8-0.15 0.003 0 29.383-35.318 29.383-35.318l-1.056-0.878zm19.266 1.691l-1.22 0.764 0.21 0.412 17.76 31.729 0.76 0.6 0.98-0.13 0.6-0.78-0.13-0.96c0-0.01-18.96-31.635-18.96-31.635zm-16.954 0.076l-0.318 0.363-18.756 31.346c-0.003 0-0.131 0.97-0.131 0.97l0.594 0.78c0.611 0.34 1.393 0.14 1.744-0.47 0.005-0.01 18.035-32.305 18.035-32.305l-1.168-0.684zm14.544 1.217l-1.36 0.502 0.15 0.449 12.6 35.911s0.66 0.73 0.66 0.73l0.98 0.04 0.72-0.66 0.04-0.98c0-0.01-13.79-35.992-13.79-35.992zm-12.153 0.039l-0.178 0.432-13.537 35.551c0 0.01 0.041 0.99 0.041 0.99l0.723 0.66c0.657 0.24 1.39-0.1 1.636-0.77 0.005 0 12.658-36.398 12.658-36.398l-1.343-0.465zm81.363 0.354l-0.47 0.099c0.08 2.213-1.12 2.525-2.85 2.895l-4.74 1.015c-2.28 0.487-2.39-0.366-2.88-1.545l-0.47 0.1 1.17 5.516 0.48-0.1c-0.01-2.074 0.05-2.476 2.1-2.984 1.82-0.458 3.57-0.923 5.46-1.274-2.4 3.416-5.58 8.284-7.24 10.367l0.53 0.67 7.48-1.595c2.75-0.59 3.47-0.659 3.92 0.795l0.47-0.1-1.09-5.113-0.47 0.099c0.15 2.045 0.01 2.603-1.99 3.063l-5.32 1.248-0.05-0.028c2.31-3.026 4.48-6.554 6.79-9.261l-0.83-3.867zm-71.891 0.451l-1.427 0.222 0.088 0.481 5.36 32.005c0.12 0.7 0.79 1.17 1.48 1.04s1.16-0.79 1.04-1.48c-0.01-0.01-6.541-32.268-6.541-32.268zm-6.869 0.013l-0.099 0.465-6.071 31.86 0.2 0.96 0.83 0.53 0.953-0.21 0.525-0.83c0.003-0.01 5.129-32.513 5.129-32.513l-1.467-0.262zm2.735 0.35l-0.571 39.685c0 0.71 0.57 1.29 1.276 1.29 0.703 0 1.279-0.58 1.279-1.28 0-0.01-0.518-39.695-0.518-39.695h-1.466zm-76.036 7.125l-1.224 6.7 0.471 0.08c0.706-1.947 0.631-2.187 3.691-1.63l3.99 0.73c3.058 0.56 2.903 0.76 2.871 2.83l0.475 0.09 1.223-6.696-0.475-0.09c-0.704 1.955-0.625 2.194-3.686 1.634l-3.992-0.728c-3.058-0.563-2.9-0.76-2.871-2.832l-0.473-0.088zm-1.751 9.36l-0.483 5.2 0.479 0.05c0.462-2 0.766-2.49 2.806-2.33l5.453 0.4 0.034 0.03c-3.107 2.21-6.225 4.92-9.235 6.82l-0.367 3.93 0.482 0.05c0.577-2.14 1.813-2.08 3.579-1.91l4.83 0.45c2.308 0.21 2.163 1.06 2.287 2.33l0.482 0.05 0.518-5.62-0.479-0.05c-0.613 1.99-0.786 2.35-2.902 2.22-1.87-0.1-3.676-0.18-5.59-0.41 3.309-2.55 7.799-6.24 10.01-7.72l-0.307-0.81-7.617-0.71c-2.79-0.26-3.502-0.41-3.502-1.93l-0.478-0.04zm149.48 0.5l-3.33 0.95c-0.42 1.12-0.61 2.35-0.47 3.56 0.25 2.19 1.54 4.43 4 4.16 3.57-0.41 2.74-6.01 5.51-6.32 1.01-0.12 1.86 0.49 1.98 1.53 0.2 1.76-1.31 2.35-2.68 2.84l0.06 0.51 2.99-0.19c0.42-0.93 0.57-1.96 0.45-2.99-0.24-2.09-1.75-4.11-4.02-3.85-3.39 0.38-2.51 5.98-5.4 6.31-1.11 0.13-1.94-0.63-2.07-1.76-0.22-2.01 1.52-3.48 3.14-4.23l-0.16-0.52zm8.82 10.63l-0.49 0.03c-0.25 2.05-0.12 2.28-3.23 2.41l-4.06 0.17c-3.1 0.12-2.99-0.1-3.42-2.13l-0.49 0.02 0.3 6.8 0.47-0.02c0.26-2.06 0.13-2.27 3.24-2.41l4.05-0.17c3.11-0.13 3 0.1 3.43 2.13l0.48-0.02-0.28-6.81zm-159.19 5.02l-0.481 0.01 0.067 5.36 0.48-0.01c0.307-1.62 0.195-2.44 2.035-2.52l4.157-0.17c2.13-0.09 4.198 0.31 4.232 3.14 0.019 1.21-0.379 2.61-1.416 3.31-0.857 0.55-2.213 0.52-3.211 0.54l-2.404 0.03c-2.338 0.03-3.127 0.14-3.364-2.23l-0.482 0.01 0.088 6.81 0.478-0.01c0.317-2.05 0.193-2.28 3.307-2.32l2.715-0.03c1.446-0.02 3.116 0.14 4.18-1.08 0.9-1.03 1.226-2.65 1.209-3.99-0.017-1.43-0.398-2.99-1.479-3.99-1.044-0.98-2.591-0.99-3.949-1.03l-2.578-0.09c-2.876-0.1-3.134-0.1-3.584-1.74zm151.83 4.78l-3.42 0.47c-0.57 1.05-0.94 2.24-0.97 3.47-0.06 2.2 0.91 4.6 3.38 4.66 3.6 0.1 3.56-5.56 6.34-5.49 1.02 0.03 1.77 0.76 1.74 1.8-0.04 1.77-1.62 2.14-3.04 2.43l-0.01 0.52 2.99 0.23c0.54-0.86 0.82-1.86 0.86-2.9 0.05-2.09-1.17-4.31-3.46-4.37-3.4-0.09-3.31 5.57-6.22 5.49-1.11-0.03-1.83-0.89-1.8-2.02 0.06-2.03 2-3.24 3.7-3.76l-0.09-0.53zm-57.06 3.73c-6.04 0-9.06 2.07-12.181 4.25-0.745 0.52-1.532 1.06-2.34 1.57l0.502 39.24c0.421-0.37 0.847-0.78 1.254-1.06 3.065-2.15 6.505-4.21 12.765-4.21 6.19 0 9.54 1.41 12.77 3.02 3.27 1.63 6.55 2.93 11.27 2.92l-0.02-39.36c-6.19 0-8.34-1.56-11.57-3.17-3.31-1.65-6.42-3.2-12.45-3.2zm-30.564 0.01c-6.024 0-9.143 1.55-12.449 3.19-3.234 1.61-5.381 3.17-11.573 3.17l-0.019 39.36c4.718 0.01 7.999-1.29 11.273-2.92 3.234-1.61 6.576-3.02 12.768-3.02 6.269 0 9.693 2.06 12.764 4.21 0.409 0.28 0.832 0.69 1.255 1.06l0.504-39.24c-0.808-0.51-1.595-1.05-2.34-1.57-3.116-2.18-6.143-4.24-12.183-4.24zm-10.127 5.37l0.262 0.51c-2.603 1.44-4.655 4.99-9.739 4.99 0 0-0.024 28.22 0.022 28.22 3.927-0.02 3.631-0.36 4.736-0.51 2.189-0.6 3.402-1 4.836-1.22l0.154 0.55c-3.876 0.95-7.074 3.55-10.134 3.54h-0.948l0.032-32.33h0.351 0.305c4.558-0.02 7.42-2.43 10.123-3.75zm50.821 0c2.7 1.32 5.56 3.72 10.12 3.76h0.31 0.34l0.04 32.32h-0.95c-3.06 0.01-6.26-2.6-10.13-3.54l0.15-0.55c1.44 0.22 2.65 0.62 4.84 1.22 1.1 0.15 0.81 0.49 4.73 0.51 0.05 0 0.02-28.23 0.02-28.22-5.08 0-7.13-3.55-9.73-4.99l0.26-0.51zm-66.278 2.08l-3.469 3.47-0.01 40.27 39.336-0.01c0 0.97 2.424 1.93 5.01 1.93 2.588 0 5.011-0.96 5.011-1.93l39.34 0.01-0.02-40.27-3.46-3.47v39.84 0.38h-0.37c-6.19 0-9.54-1.66-12.77-3.27-3.31-1.64-6.42-3.19-12.45-3.19-6.04 0-8.98 1.97-12.099 4.16-0.821 0.57-1.668 1.25-2.569 1.79h-1.226c-0.901-0.54-1.749-1.22-2.567-1.79-3.118-2.19-6.06-4.16-12.103-4.16-6.024 0-9.143 1.55-12.451 3.19-3.231 1.61-6.573 3.27-12.764 3.27h-0.369v-0.38-39.84zm99.618 48.06h-0.02c-2.36 1.29-5.32 2.09-7.33 2.11-2.02-0.02-4.98-0.82-7.33-2.11-2.37 1.29-5.32 2.09-7.34 2.11-2.02-0.02-4.97-0.82-7.33-2.11-2.37 1.29-5.32 2.09-7.33 2.11-2.03-0.02-4.98-0.82-7.34-2.11-2.36 1.29-5.32 2.09-7.33 2.11-2.02-0.02-4.98-0.82-7.336-2.11-2.362 1.29-5.326 2.09-7.344 2.11-2.016-0.02-4.967-0.82-7.328-2.11-2.362 1.29-5.318 2.09-7.334 2.11-2.019-0.02-4.977-0.82-7.336-2.11-2.36 1.29-5.314 2.09-7.33 2.11-2.019-0.02-4.975-0.82-7.336-2.11-2.362 1.29-5.316 2.09-7.332 2.11-2.016-0.02-4.973-0.82-7.334-2.11-2.357 1.29-5.318 2.09-7.334 2.11-2.004-0.02-4.941-0.82-7.295-2.09l-0.024-0.02c14.908 33.64 42.169 56.16 73.328 56.16 31.155 0 58.415-22.52 73.315-56.15-2.35 1.28-5.29 2.08-7.31 2.1-2.01-0.02-4.97-0.83-7.32-2.11zm14.63 0.01c0.01 0 0.02 0 0.02-0.01l-0.01 0.01h-0.01zm-136.77 7.2s3.927 2.12 7.084 2.12c3.158 0 7.028-2.1 7.028-2.1s3.919 2.1 7.08 2.1c3.155 0 7.023-2.1 7.023-2.1s3.923 2.1 7.078 2.1c3.156 0 7.028-2.1 7.028-2.1s3.919 2.1 7.08 2.1c3.153 0 7.023-2.1 7.023-2.1s3.923 2.1 7.076 2.1c3.156 0 7.028-2.1 7.028-2.1s3.92 2.1 7.07 2.1c3.17 0 7.04-2.1 7.04-2.1s3.92 2.1 7.07 2.1c3.16 0 7.03-2.1 7.03-2.1s3.92 2.1 7.07 2.1c3.17 0 7.04-2.1 7.04-2.1s3.91 2.1 7.07 2.1 7.04-2.09 7.04-2.09v0.89s-2.09 3.66-7.04 3.66c-4.94 0-7.07-3.67-7.07-3.67s-2.09 3.67-7.04 3.67c-4.94 0-7.07-3.67-7.07-3.67s-2.08 3.67-7.03 3.67c-4.94 0-7.07-3.67-7.07-3.67s-2.08 3.67-7.04 3.67c-4.94 0-7.07-3.67-7.07-3.67s-2.08 3.67-7.028 3.67c-4.945 0-7.076-3.67-7.076-3.67s-2.081 3.67-7.023 3.67c-4.95 0-7.08-3.67-7.08-3.67s-2.08 3.67-7.028 3.67c-4.949 0-7.078-3.67-7.078-3.67s-2.078 3.67-7.023 3.67c-4.95 0-7.08-3.67-7.08-3.67s-2.083 3.67-7.028 3.67-7.084-3.68-7.084-3.68v-0.9zm5.946 9.55s4.008 2.11 7.226 2.11c3.221 0 7.168-2.1 7.168-2.1s3.998 2.1 7.219 2.1c3.219 0 7.168-2.1 7.168-2.1s4 2.1 7.219 2.1c3.221 0 7.17-2.1 7.17-2.1s3.994 2.1 7.212 2.1c3.224 0 7.168-2.1 7.168-2.1s4.002 2.1 7.222 2.1 7.17-2.1 7.17-2.1 4 2.1 7.22 2.1 7.17-2.1 7.17-2.1 3.99 2.1 7.21 2.1 7.17-2.1 7.17-2.1 4 2.1 7.22 2.1 7.17-2.1 7.17-2.1v0.9s-2.13 3.67-7.17 3.67c-5.05 0-7.22-3.67-7.22-3.67s-2.12 3.67-7.17 3.67c-5.04 0-7.21-3.67-7.21-3.67s-2.13 3.67-7.17 3.67c-5.05 0-7.22-3.67-7.22-3.67s-2.12 3.67-7.17 3.67c-5.044 0-7.222-3.67-7.222-3.67s-2.116 3.67-7.168 3.67c-5.042 0-7.212-3.67-7.212-3.67s-2.126 3.67-7.17 3.67c-5.047 0-7.219-3.67-7.219-3.67s-2.123 3.67-7.168 3.67-7.219-3.67-7.219-3.67-2.121 3.67-7.168 3.67c-5.045 0-7.226-3.68-7.226-3.68v-0.9zm8.021 9.37s3.938 2.12 7.098 2.12c3.167 0 7.049-2.1 7.049-2.1s3.93 2.1 7.097 2.1c3.163 0 7.041-2.1 7.041-2.1s3.932 2.1 7.1 2.1c3.163 0 7.045-2.1 7.045-2.1s3.931 2.1 7.094 2.1c3.165 0 7.047-2.1 7.047-2.1s3.93 2.1 7.1 2.1c3.16 0 7.04-2.1 7.04-2.1s3.93 2.1 7.1 2.1c3.16 0 7.04-2.1 7.04-2.1s3.93 2.1 7.09 2.1c3.17 0 7.05-2.1 7.05-2.1v0.89s-2.08 3.67-7.05 3.67c-4.95 0-7.09-3.67-7.09-3.67s-2.09 3.67-7.04 3.67c-4.96 0-7.1-3.67-7.1-3.67s-2.09 3.67-7.04 3.67c-4.96 0-7.1-3.67-7.1-3.67s-2.09 3.67-7.047 3.67-7.094-3.67-7.094-3.67-2.088 3.67-7.045 3.67c-4.96 0-7.1-3.67-7.1-3.67s-2.081 3.67-7.041 3.67c-4.959 0-7.097-3.67-7.097-3.67s-2.087 3.67-7.049 3.67c-4.957 0-7.098-3.68-7.098-3.68v-0.9zm11.123 9.47s3.552 2.11 6.408 2.11c2.859 0 6.356-2.1 6.356-2.1s3.55 2.1 6.406 2.1 6.359-2.1 6.359-2.1 3.548 2.1 6.407 2.1c2.853 0 6.353-2.1 6.353-2.1s3.552 2.1 6.399 2.1c2.86 0 6.37-2.1 6.37-2.1s3.54 2.1 6.4 2.1 6.36-2.1 6.36-2.1 3.55 2.1 6.4 2.1c2.86 0 6.36-2.1 6.36-2.1v0.9s-1.88 3.66-6.36 3.66-6.4-3.66-6.4-3.66-1.88 3.66-6.36 3.66-6.4-3.66-6.4-3.66-1.89 3.66-6.37 3.66c-4.467 0-6.399-3.66-6.399-3.66s-1.878 3.66-6.353 3.66c-4.478 0-6.407-3.66-6.407-3.66s-1.879 3.66-6.359 3.66c-4.475 0-6.406-3.66-6.406-3.66s-1.878 3.66-6.356 3.66c-4.477 0-6.408-3.68-6.408-3.68v-0.89zm18.014 9.29s3.781 2.11 6.824 2.11c3.039 0 6.764-2.1 6.764-2.1s3.777 2.1 6.818 2.1c3.036 0 6.768-2.1 6.768-2.1s3.77 2.1 6.81 2.1 6.77-2.1 6.77-2.1v0.9s-2.01 3.67-6.77 3.67-6.81-3.67-6.81-3.67-2.01 3.67-6.768 3.67c-4.765 0-6.818-3.67-6.818-3.67s-2.002 3.67-6.764 3.67c-4.767 0-6.824-3.69-6.824-3.69v-0.89z" transform="matrix(.8 0 0 -.8 264.06 444.31)" fill="#003865"/></g></g></svg>
